<svg width="20" height="20" viewBox="0 0 20 20" fill="none" xmlns="http://www.w3.org/2000/svg">
    <path d="M19.8279 4.97126C19.7127 4.52013 19.5348 4.08738 19.2994 3.68563C19.0733 3.2677 18.7843 2.88707 18.4423 2.55713C17.9466 2.06306 17.3596 1.67008 16.7139 1.40006C15.4142 0.866648 13.9567 0.866648 12.657 1.40006C12.0467 1.65838 11.486 2.02091 10.9999 2.47142L10.9285 2.55713L10 3.48564L9.07148 2.55713L9.00006 2.47142C8.51402 2.02091 7.95332 1.65838 7.34302 1.40006C6.04332 0.866648 4.58583 0.866648 3.28613 1.40006C2.64043 1.67008 2.05339 2.06306 1.55767 2.55713C0.879659 3.21684 0.399701 4.05306 0.172042 4.97126C0.0509284 5.43755 -0.0067308 5.91804 0.000624357 6.39974C0.000624357 6.85257 0.0577636 7.30397 0.172042 7.74252C0.291797 8.18541 0.464458 8.61226 0.686296 9.01386C0.925874 9.42671 1.21886 9.80614 1.55767 10.1424L10 18.5847L18.4423 10.1424C18.7809 9.80953 19.0709 9.42812 19.2994 9.01386C19.7634 8.22121 20.0052 7.31818 19.9994 6.39974C20.0068 5.91804 19.9491 5.43754 19.8279 4.97126V4.97126ZM18.3995 7.29969C18.2284 7.95239 17.8884 8.54853 17.4138 9.02815L9.97143 16.4563L2.52904 9.02815C2.28651 8.7839 2.07538 8.51038 1.9005 8.21391C1.73595 7.92062 1.6065 7.60897 1.51481 7.2854C1.44162 6.96188 1.40331 6.63144 1.40054 6.29975C1.40247 5.95857 1.44078 5.61858 1.51481 5.28553C1.60381 4.96103 1.7334 4.64906 1.9005 4.35701C2.07192 4.05703 2.28334 3.78562 2.52904 3.54278C2.89601 3.18072 3.32712 2.89008 3.80039 2.68569C4.75406 2.30418 5.81795 2.30418 6.77163 2.68569C7.24303 2.88139 7.66871 3.16852 8.02869 3.52849L9.97143 5.48551L11.9142 3.52849C12.2739 3.16788 12.701 2.88151 13.1712 2.68569C14.1249 2.30418 15.1888 2.30418 16.1425 2.68569C16.6153 2.88996 17.0467 3.18137 17.4138 3.54278C17.6624 3.77848 17.8709 4.05275 18.0281 4.35701C18.3589 4.9405 18.5313 5.60042 18.528 6.27118C18.5475 6.61633 18.5186 6.96251 18.4423 7.29969H18.3995V7.29969Z" fill="#9B9B9B" />
</svg>